<svg id="Capa_1" enable-background="new 0 0 497 497" height="512" viewBox="0 0 497 497" width="512"
     xmlns="http://www.w3.org/2000/svg">
    <g>
        <path d="m113.993 21.938-65.642-9.394c-26.704 0-48.351 21.648-48.351 48.351 0 3.224.316 6.374.917 9.422 1.664 8.423 9.169 14.423 17.755 14.423h119.352z"
              fill="#dededc"/>
        <path d="m48.351 12.544c26.703 0 48.351 21.647 48.351 48.351v375.21c0 26.703 21.647 48.351 48.351 48.351l275.312-48.351v-375.21c0-26.703-21.647-48.351-48.351-48.351z"
              fill="#ececec"/>
        <path d="m145.053 484.456v-7.708l14.297-1.749 4.809 7.87-13.343 1.432-4.276.155z" fill="#ececec"/>
        <path d="m457.142 434.788c-.336-12.557-10.691-22.528-23.252-22.528h-217.344c-12.956 0-23.211 10.629-23.143 23.585.001.087.001.173.001.26 0 26.703-21.647 48.351-48.351 48.351h262.889c26.921 0 49.539-22.027 49.214-48.946-.003-.241-.008-.482-.014-.722z"
              fill="#dededc"/>
        <g>
            <g>
                <path d="m209.799 99.757c-4.143 0-7.5-3.358-7.5-7.5 0-4.918-4.001-8.919-8.918-8.919-4.918 0-8.919 4.001-8.919 8.919 0 4.142-3.357 7.5-7.5 7.5s-7.5-3.358-7.5-7.5c0-13.189 10.73-23.919 23.919-23.919s23.918 10.73 23.918 23.919c0 4.142-3.358 7.5-7.5 7.5z"
                      fill="#423e4f"/>
            </g>
            <g>
                <path d="m356.566 99.757c-4.143 0-7.5-3.358-7.5-7.5 0-4.918-4.001-8.919-8.919-8.919s-8.919 4.001-8.919 8.919c0 4.142-3.357 7.5-7.5 7.5s-7.5-3.358-7.5-7.5c0-13.189 10.73-23.919 23.919-23.919s23.919 10.73 23.919 23.919c0 4.142-3.357 7.5-7.5 7.5z"
                      fill="#423e4f"/>
            </g>
            <g>
                <path d="m266.764 126.882c-8.843 0-17.252-3.83-23.07-10.507-2.722-3.123-2.396-7.86.727-10.582 3.124-2.721 7.859-2.396 10.582.727 2.97 3.407 7.256 5.362 11.762 5.362s8.792-1.954 11.762-5.362c2.72-3.123 7.457-3.448 10.582-.727 3.122 2.721 3.448 7.459.727 10.582-5.821 6.677-14.23 10.507-23.072 10.507z"
                      fill="#423e4f"/>
            </g>
        </g>
        <path d="m420.364 109.098c-25.209 11.759-49.411 28.838-70.89 50.316-43.494 43.494-69.142 99.313-68.608 149.316l.262 24.471 24.471.261c.512.005 1.545.008 1.548.008 37.066 0 77.309-14.352 113.218-39.559v-184.813z"
              fill="#dededc"/>
        <g>
            <path d="m371.285 189.781h-194.323c-4.143 0-7.5-3.358-7.5-7.5s3.357-7.5 7.5-7.5h194.323c4.143 0 7.5 3.358 7.5 7.5s-3.357 7.5-7.5 7.5z"
                  fill="#6a647f"/>
        </g>
        <g>
            <path d="m371.285 236.012h-194.323c-4.143 0-7.5-3.358-7.5-7.5s3.357-7.5 7.5-7.5h194.323c4.143 0 7.5 3.358 7.5 7.5s-3.357 7.5-7.5 7.5z"
                  fill="#6a647f"/>
        </g>
        <g>
            <path d="m371.285 282.242h-194.323c-4.143 0-7.5-3.358-7.5-7.5s3.357-7.5 7.5-7.5h194.323c4.143 0 7.5 3.358 7.5 7.5s-3.357 7.5-7.5 7.5z"
                  fill="#6a647f"/>
        </g>
        <g fill="#423e4f">
            <path d="m371.285 267.242h-85.256c-1.26 5.014-2.293 10.019-3.097 15h88.353c4.143 0 7.5-3.358 7.5-7.5s-3.357-7.5-7.5-7.5z"/>
            <path d="m371.285 221.011h-67.394c-2.599 4.963-4.999 9.968-7.181 15h74.575c4.143 0 7.5-3.358 7.5-7.5s-3.357-7.5-7.5-7.5z"/>
            <path d="m371.285 174.781h-35.992c-4.175 4.894-8.147 9.897-11.888 15h47.88c4.143 0 7.5-3.358 7.5-7.5s-3.357-7.5-7.5-7.5z"/>
        </g>
        <path d="m476.007 117.564c-36.242 5.882-75.651 26.324-108.855 59.527-40.237 40.237-61.733 89.588-61.288 131.372 41.784.446 91.135-21.05 131.372-61.288 33.203-33.203 53.645-72.613 59.527-108.855 1.967-12.119-8.636-22.722-20.756-20.756z"
              fill="#e4996d"/>
        <g>
            <path d="m275.291 346.537c-1.919 0-3.839-.732-5.304-2.197-2.929-2.929-2.929-7.678 0-10.607l164.975-164.975c2.93-2.929 7.678-2.929 10.607 0s2.929 7.678 0 10.607l-164.974 164.975c-1.465 1.465-3.385 2.197-5.304 2.197z"
                  fill="#d97c41"/>
        </g>
        <g>
            <path d="m226.343 361.675h-49.381c-4.143 0-7.5-3.358-7.5-7.5s3.357-7.5 7.5-7.5h49.381c4.143 0 7.5 3.358 7.5 7.5s-3.358 7.5-7.5 7.5z"
                  fill="#6a647f"/>
        </g>
    </g>
</svg>