<svg id="Layer_1" enable-background="new 0 0 512 512" height="512" viewBox="0 0 512 512" width="512"
     xmlns="http://www.w3.org/2000/svg">
    <g>
        <g fill="#d5e5ff">
            <path d="m280.066 103.774h-29.838l35.194-54.014c1.524-2.34 1.645-5.327.314-7.782s-3.899-3.985-6.692-3.985h-41.512c-4.204 0-7.611 3.408-7.611 7.611s3.408 7.611 7.611 7.611h27.468l-35.194 54.014c-1.525 2.34-1.646 5.327-.315 7.782s3.899 3.985 6.692 3.985h43.883c4.204 0 7.611-3.408 7.611-7.611s-3.406-7.611-7.611-7.611z"/>
            <path d="m363.069 73.392c0-4.204-3.407-7.612-7.611-7.612h-29.838l35.194-54.014c1.524-2.34 1.645-5.327.314-7.782s-3.899-3.984-6.692-3.984h-41.512c-4.204 0-7.611 3.408-7.611 7.611s3.407 7.611 7.611 7.611h27.468l-35.194 54.014c-1.524 2.34-1.645 5.327-.314 7.782s3.899 3.985 6.692 3.985h43.883c4.203.001 7.61-3.407 7.61-7.611z"/>
            <path d="m388.974 170.282h-29.838l35.194-54.014c1.524-2.34 1.645-5.327.314-7.782s-3.899-3.985-6.692-3.985h-41.512c-4.204 0-7.611 3.408-7.611 7.611s3.407 7.611 7.611 7.611h27.468l-35.194 54.014c-1.524 2.34-1.645 5.327-.314 7.782s3.899 3.985 6.692 3.985h43.883c4.204 0 7.611-3.408 7.611-7.611s-3.408-7.611-7.612-7.611z"/>
        </g>
        <g>
            <g>
                <g>
                    <path d="m101.29 383.361c-4.23 53.884-54.563 49.364-54.563 49.364s-33.189-17.363-32.769 20.555c.394 35.571 32.934 19.507 32.934 19.507s54.009 18.117 90.775 1.377c0 0 46.721-11.19 52.588-82.835z"
                          fill="#EEE4D4"/>
                    <g>
                        <g>
                            <g>
                                <g>
                                    <path d="m13.958 453.28c.394 35.571 32.934 19.507 32.934 19.507l-.165-40.062s-33.188-17.363-32.769 20.555z"
                                          fill="#FBC9C5"/>
                                </g>
                            </g>
                        </g>
                    </g>
                </g>
                <g>
                    <path d="m497.528 317.871c-11.666-5.492-18.654-17.417-18.414-30.305.285-15.283-8.122-30.381-22.8-37.291-21.652-10.192-45.954 1.374-54.763 22.416-12.544 26.638-1.112 58.401 25.535 70.944 26.646 12.544 58.417 1.118 70.961-25.52z"
                          fill="#A3D399"/>
                    <path d="m497.528 317.871c-11.666-5.492-18.654-17.417-18.414-30.305.285-15.283-8.122-30.381-22.8-37.291-10.713-5.043-22.072-4.753-31.885-.63.48.204.961.405 1.439.63 14.679 6.91 23.086 22.009 22.8 37.291-.24 12.888 6.748 24.814 18.414 30.305l.518.244c-6.731 14.293-19 24.199-33.04 28.379 24.862 7.447 52.097-4.195 63.486-28.379z"
                          fill="#87bf7c"/>
                    <g>
                        <path d="m468.64 391.72c.749-36.512-22.273-86.568-68.904-114.686-55.712-33.593-143.84-12.575-186.627 20.588l-23.22 185.517h109.458v27.761s55.388 1.099 69.336 1.099c27.776 0 100.04-23.82 100.04-120.313z"
                              fill="#f5efe6"/>
                        <path d="m468.64 391.72c.749-36.512-22.273-86.568-68.904-114.686-24.059-14.507-54.163-18.823-84.051-16.381 19.297 1.697 37.762 6.829 53.605 16.381 46.632 28.118 69.654 78.174 68.904 114.686l.082-.033c0 90.438-63.479 117.037-94.314 120.019 10.488.167 19.989.294 24.72.294 27.776 0 100.04-23.82 100.04-120.313z"
                              fill="#EEE4D4"/>
                        <path d="m355.784 437.935h-56.438c-4.204 0-7.611 3.408-7.611 7.611 0 4.204 3.407 7.612 7.611 7.612h56.438c4.204 0 7.612-3.408 7.612-7.612-.001-4.203-3.408-7.611-7.612-7.611z"
                              fill="#B6AB9B"/>
                        <ellipse cx="299.346" cy="474.164" fill="#FBC9C5" rx="22.128" ry="36.736"/>
                        <path d="m299.346 437.428c-4.073 0-7.886 1.835-11.164 5.022 6.557 6.376 10.964 18.187 10.964 31.714s-4.407 25.338-10.964 31.714c3.278 3.187 7.091 5.022 11.164 5.022 12.221 0 22.128-16.447 22.128-36.736s-9.907-36.736-22.128-36.736z"
                              fill="#e09894"/>
                    </g>
                </g>
                <g>
                    <path d="m226.266 454.233c-8.093 19.16-24.986 35.899-44.168 44.942-36.541 17.227-79.34 9.005-79.34 9.005s-32.325 16.495-33.19-19.068c-.922-37.91 32.493-20.988 32.493-20.988s28.973 3.204 43.214-18.452c12.959-19.707 15.233-62.743 15.233-62.743l90.776-25.037z"
                          fill="#f5efe6"/>
                    <g>
                        <g>
                            <g>
                                <g>
                                    <path d="m69.569 489.112c.865 35.562 33.19 19.068 33.19 19.068l-.696-40.056c-.001 0-33.417-16.921-32.494 20.988z"
                                          fill="#FBC9C5"/>
                                </g>
                            </g>
                        </g>
                    </g>
                </g>
            </g>
            <g>
                <g>
                    <path d="m196.663 170.075h-1.13c-5.758 0-29.11 0-34.868 0h-1.13c-57.001 0-121.69 51.413-121.69 118.861 0 67.797 73.427 93.689 140.256 93.689 66.828 0 140.251-25.89 140.251-93.689.001-67.449-64.688-118.861-121.689-118.861z"
                          fill="#A3D399"/>
                    <g>
                        <g>
                            <g>
                                <path d="m301.564 165.528c3.378-11.939-7.674-22.962-19.644-19.593-12.535 3.528-26.343 8.628-32.896 15.165-3.798 3.788-5.932 8.831-7.04 14.131-5.906-2.069-12.242-3.199-18.826-3.199h-90.117c-6.583 0-12.92 1.13-18.825 3.199-1.108-5.3-3.243-10.343-7.04-14.131-6.554-6.537-20.362-11.637-32.896-15.165-11.97-3.369-23.022 7.654-19.644 19.593 3.537 12.502 8.651 26.274 15.205 32.811 3.206 3.198 7.313 5.204 11.711 6.42-2.692 5.758-4.459 12.051-5.078 18.708l-4.972 77.763c-5.814 62.592 43.573 116.624 106.597 116.624 63.024 0 112.411-54.032 106.597-116.624l-4.971-77.763c-.618-6.657-2.386-12.95-5.078-18.708 4.398-1.216 8.505-3.222 11.711-6.42 6.555-6.537 11.669-20.309 15.206-32.811z"
                                      fill="#f5efe6"/>
                                <g>
                                    <path d="m281.92 145.935c-4.737 1.333-9.654 2.891-14.294 4.666 3.447 3.813 5.093 9.265 3.492 14.926-3.537 12.502-8.651 26.274-15.205 32.81-.095.095-.191.188-.287.281-5.631 5.404-8.119 13.197-6.854 20.898.214 1.301.383 2.618.507 3.949l4.971 77.763c5.336 57.453-35.838 107.686-91.374 115.549 4.968.703 10.048 1.075 15.223 1.075 63.024 0 112.411-54.032 106.597-116.624l-4.971-77.763c-.618-6.657-2.386-12.95-5.078-18.708 4.398-1.216 8.505-3.222 11.711-6.42 6.554-6.537 11.667-20.308 15.205-32.81 3.379-11.938-7.673-22.961-19.643-19.592z"
                                          fill="#EEE4D4"/>
                                </g>
                                <path d="m220.007 151.12c18.022 0 28.611 20.839 17.37 34.889-10.95 13.686-31.429 4.821-49.213 17.15-13.798 9.565-10.736 25.238-10.736 25.238-27.353 0-55.509-17.533-62.509-46.201-3.865-15.832 8.258-31.076 24.595-31.076z"
                                      fill="#A3D399"/>
                                <path d="m220.007 151.12h-30.446c18.022 0 28.611 20.839 17.37 34.889-10.95 13.686-31.429 4.821-49.213 17.15-7.68 5.324-10.134 12.537-10.802 17.89 9.47 4.774 20.048 7.348 30.513 7.348 0 0-3.062-15.673 10.736-25.238 17.784-12.328 38.263-3.464 49.213-17.15 11.24-14.05.651-34.889-17.371-34.889z"
                                      fill="#87bf7c"/>
                            </g>
                            <g>
                                <path d="m178.099 417.854c20.082 0 38.778-5.487 54.744-14.988 30.216-17.98 30.825-61.77 1.25-80.782-16.141-10.377-35.363-16.398-55.995-16.398s-39.853 6.021-55.995 16.398c-29.574 19.012-28.965 62.802 1.25 80.782 15.969 9.501 34.665 14.988 54.746 14.988z"
                                      fill="#f2deac"/>
                            </g>
                            <g>
                                <g>
                                    <path d="m158.591 345.338c9.795 0 9.811-15.223 0-15.223-9.795 0-9.811 15.223 0 15.223z"
                                          fill="#cfb370"/>
                                </g>
                                <g>
                                    <path d="m197.608 345.338c9.795 0 9.811-15.223 0-15.223-9.795 0-9.811 15.223 0 15.223z"
                                          fill="#cfb370"/>
                                </g>
                            </g>
                        </g>
                        <path d="m167.427 109.912c4.532-11.738 16.815-11.397 21.346 0l14.157 41.529s-5.321 14.874-24.83 14.874c-19.508 0-24.83-14.874-24.83-14.874z"
                              fill="#ffd500"/>
                    </g>
                </g>
                <g fill="#B6AB9B">
                    <path d="m225.285 284.646c-14.336 0-26-11.634-26-25.935 0-4.204 3.408-7.611 7.611-7.611 4.204 0 7.611 3.408 7.611 7.611 0 5.907 4.834 10.712 10.777 10.712 5.942 0 10.777-4.805 10.777-10.712 0-4.204 3.408-7.611 7.611-7.611 4.204 0 7.611 3.408 7.611 7.611.001 14.3-11.662 25.935-25.998 25.935z"/>
                    <path d="m129.029 284.646c-14.336 0-26-11.634-26-25.935 0-4.204 3.408-7.611 7.611-7.611s7.611 3.408 7.611 7.611c0 5.907 4.834 10.712 10.777 10.712 5.942 0 10.777-4.805 10.777-10.712 0-4.204 3.408-7.611 7.611-7.611 4.204 0 7.611 3.408 7.611 7.611.002 14.3-11.662 25.935-25.998 25.935z"/>
                </g>
            </g>
        </g>
    </g>
    <ellipse cx="175.695" cy="392.248" fill="#e09894" rx="17.333" ry="19.485"/>
</svg>
