<svg id="Layer_1" enable-background="new 0 0 512 512" height="512" viewBox="0 0 512 512" width="512"
     xmlns="http://www.w3.org/2000/svg">
    <g>
        <g>
            <g>
                <g>
                    <g>
                        <path d="m413.353 471.379c-8.72-9.518-10.663-23.215-5.544-35.056 6.07-14.041 4.018-31.215-6.954-43.191-16.184-17.666-43.089-16.194-59.242-.061-21.739 19.894-23.215 53.646-3.298 75.387s53.687 23.238 75.425 3.344z"
                              fill="#87bf7c"/>
                        <path d="m413.353 471.379c-8.72-9.518-10.663-23.215-5.544-35.056 6.07-14.041 4.018-31.215-6.954-43.191-11.913-13.004-29.631-15.627-44.598-9.677 5.005 2.095 9.679 5.296 13.692 9.677 10.972 11.976 13.023 29.15 6.954 43.191-5.119 11.841-3.176 25.538 5.544 35.056l.387.423c-6.097 5.579-13.14 9.475-20.559 11.715 17.423 5.24 37.077 1.452 51.464-11.715z"
                              fill="#5d9953"/>
                        <path d="m368.947 391.618c1.004-36.051-14.723-73.31-40.083-98.711-25.279-25.824-61.693-38.495-96.181-23.747 0 0-73.957 28.618-73.957 118.052 0 33.81 16.077 62.991 40.703 81.581v42.107s169.587 20.884 169.587-119.301z"
                              fill="#f5efe6"/>
                        <g>
                            <path d="m282.859 70.487h-1.158c-5.904 0-29.85 0-35.755 0h-1.159c-58.45 0-124.784 52.644-124.784 121.707 0 69.421 75.293 95.933 143.822 95.933 68.527 0 143.817-26.51 143.817-95.933.001-69.063-66.333-121.707-124.783-121.707z"
                                  fill="#87bf7c"/>
                            <g>
                                <g>
                                    <g>
                                        <path d="m390.427 65.831c3.464-12.225-7.869-23.512-20.143-20.062-12.853 3.613-27.012 8.835-33.733 15.528-3.894 3.878-6.083 9.043-7.219 14.469-6.056-2.119-12.553-3.276-19.304-3.276h-92.408c-6.751 0-13.248 1.157-19.304 3.276-1.136-5.427-3.325-10.591-7.219-14.469-6.72-6.693-20.879-11.916-33.733-15.528-12.274-3.45-23.607 7.837-20.143 20.062 3.627 12.801 8.871 26.903 15.591 33.596 3.288 3.274 7.499 5.329 12.009 6.574-2.76 5.896-4.573 12.34-5.207 19.156l-5.098 79.625c-5.961 64.091 44.681 119.417 109.308 119.417 64.626 0 115.269-55.326 109.307-119.417l-5.098-79.625c-.634-6.817-2.446-13.26-5.207-19.156 4.51-1.245 8.721-3.299 12.009-6.574 6.721-6.693 11.964-20.794 15.592-33.596z"
                                              fill="#f5efe6"/>
                                        <g>
                                            <path d="m370.284 45.77c-4.778 1.343-9.736 2.909-14.426 4.69 3.59 3.908 5.319 9.53 3.663 15.372-3.627 12.801-8.871 26.903-15.591 33.596-.099.099-.2.197-.301.294-5.772 5.527-8.319 13.508-7.022 21.393.219 1.332.393 2.681.52 4.044l5.098 79.625c5.477 58.883-36.827 110.361-93.855 118.34 5.044.706 10.201 1.077 15.453 1.077 64.626 0 115.269-55.326 109.307-119.416l-5.098-79.625c-.634-6.817-2.446-13.26-5.207-19.156 4.51-1.245 8.721-3.3 12.009-6.574 6.72-6.693 11.964-20.795 15.591-33.596 3.466-12.227-7.867-23.514-20.141-20.064z"
                                                  fill="#EEE4D4"/>
                                        </g>
                                        <path d="m306.797 51.079c18.48 0 29.338 21.338 17.811 35.725-11.228 14.014-32.228 4.937-50.464 17.561-14.148 9.794-11.008 25.843-11.008 25.843-28.049 0-56.92-17.953-64.098-47.307-3.964-16.211 8.468-31.821 25.221-31.821z"
                                              fill="#87bf7c"/>
                                        <path d="m306.797 51.078h-30.905c18.48 0 29.338 21.338 17.811 35.725-11.228 14.014-32.228 4.937-50.464 17.561-7.947 5.501-10.439 12.974-11.097 18.47 9.635 4.794 20.373 7.373 30.994 7.373 0 0-3.14-16.049 11.008-25.843 18.236-12.624 39.236-3.547 50.464-17.561 11.527-14.386.669-35.725-17.811-35.725z"
                                              fill="#5d9953"/>
                                    </g>
                                    <g>
                                        <path d="m263.823 324.199c20.592 0 39.764-5.618 56.136-15.347 30.984-18.411 31.608-63.25 1.282-82.717-16.552-10.625-36.262-16.791-57.418-16.791s-40.866 6.166-57.418 16.791c-30.326 19.467-29.702 64.306 1.282 82.717 16.373 9.729 35.544 15.347 56.136 15.347z"
                                              fill="#f2deac"/>
                                    </g>
                                    <g>
                                        <g>
                                            <path d="m243.819 249.88c9.943 0 9.96-15.453 0-15.453-9.943 0-9.96 15.453 0 15.453z"
                                                  fill="#cfb370"/>
                                        </g>
                                        <g>
                                            <path d="m283.828 249.88c9.943 0 9.96-15.453 0-15.453-9.943 0-9.96 15.453 0 15.453z"
                                                  fill="#cfb370"/>
                                        </g>
                                    </g>
                                </g>
                                <path d="m252.879 8.884c4.647-12.019 17.242-11.67 21.889 0l14.517 42.523s-5.456 15.23-25.461 15.23c-20.004 0-25.461-15.23-25.461-15.23z"
                                      fill="#ffd500"/>
                            </g>
                        </g>
                        <path d="m263.823 300.317c-12.223 0-24.446-4.648-33.751-13.945-3.019-3.016-3.021-7.908-.005-10.927 3.016-3.018 7.908-3.022 10.927-.005 12.589 12.577 33.073 12.575 45.659 0 3.019-3.017 7.911-3.014 10.927.005s3.014 7.91-.005 10.927c-9.305 9.297-21.529 13.945-33.752 13.945z"
                              fill="#cfb370"/>
                        <g fill="#B6AB9B">
                            <path d="m234.047 183.844c-4.267 0-7.726-3.459-7.726-7.726 0-5.851-4.793-10.611-10.685-10.611s-10.685 4.76-10.685 10.611c0 4.267-3.459 7.726-7.726 7.726s-7.726-3.459-7.726-7.726c0-14.371 11.725-26.063 26.138-26.063 14.412 0 26.137 11.692 26.137 26.063-.001 4.267-3.46 7.726-7.727 7.726z"/>
                            <path d="m330.423 183.844c-4.268 0-7.726-3.459-7.726-7.726 0-5.851-4.794-10.611-10.685-10.611s-10.685 4.76-10.685 10.611c0 4.267-3.459 7.726-7.726 7.726s-7.726-3.459-7.726-7.726c0-14.371 11.725-26.063 26.138-26.063s26.138 11.692 26.138 26.063c-.002 4.267-3.461 7.726-7.728 7.726z"/>
                        </g>
                    </g>
                </g>
                <g>
                    <path d="m194.253 437.373h-64.586l-1.257 73.527s45.395.444 72.799-20.005" fill="#f5efe6"/>
                    <ellipse cx="199.429" cy="474.136" fill="#FBC9C5" rx="22.155" ry="36.763"/>
                    <path d="m199.429 437.373c-3.72 0-7.224 1.529-10.302 4.217 7.046 6.154 11.854 18.415 11.854 32.546s-4.807 26.392-11.854 32.546c3.078 2.688 6.582 4.217 10.302 4.217 12.236 0 22.155-16.459 22.155-36.763 0-20.303-9.919-36.763-22.155-36.763z"
                          fill="#e09894"/>
                    <ellipse cx="128.41" cy="474.136" fill="#FBC9C5" rx="22.155" ry="36.763"/>
                    <path d="m128.41 437.373c-3.72 0-7.224 1.529-10.302 4.217 7.046 6.154 11.853 18.415 11.853 32.546s-4.807 26.392-11.853 32.546c3.078 2.688 6.582 4.217 10.302 4.217 12.236 0 22.155-16.459 22.155-36.763 0-20.303-9.919-36.763-22.155-36.763z"
                          fill="#e09894"/>
                </g>
                <path d="m262.525 437.373h-125.937v-26.76h152.697c-.001 14.78-11.981 26.76-26.76 26.76z"
                      fill="#d5e5ff"/>
                <path d="m194.253 437.373h-131.62c-3.367 0-6.332-2.212-7.29-5.437l-27.422-92.382c-1.445-4.869 2.206-9.756 7.29-9.756h131.621c3.367 0 6.332 2.212 7.29 5.437l27.422 92.382c1.444 4.869-2.207 9.756-7.291 9.756z"
                      fill="#d5e5ff"/>
                <path d="m201.543 427.617-27.422-92.382c-.957-3.225-3.923-5.437-7.29-5.437h-30.905c3.367 0 6.332 2.212 7.29 5.437l27.422 92.382c1.445 4.869-2.206 9.756-7.29 9.756h30.905c5.084 0 8.735-4.887 7.29-9.756z"
                      fill="#c6dbff"/>
                <g>
                    <path d="m342.573 382.12c-15.281 15.434-32.593 28.83-51.386 40.058 0 0-11.595 35.323-37.916 10.118-28.058-26.868 8.471-38.709 8.471-38.709 16.107-12.592 30.295-25.855 41.705-41.603z"
                          fill="#EEE4D4"/>
                    <g>
                        <g>
                            <g>
                                <g>
                                    <path d="m253.27 432.297c26.321 25.204 37.916-10.118 37.916-10.118l-29.445-28.59c.001-.001-36.529 11.84-8.471 38.708z"
                                          fill="#FBC9C5"/>
                                </g>
                            </g>
                        </g>
                    </g>
                </g>
                <ellipse cx="114.732" cy="383.586" fill="#abcdf7" rx="20.884" ry="20.865"/>
            </g>
        </g>
        <g>
            <path d="m462.158 483.952h-28.719c-4.268 0-7.726-3.459-7.726-7.726v-29.026c0-4.267 3.459-7.726 7.726-7.726h28.719c12.263 0 22.239 9.976 22.239 22.239s-9.976 22.239-22.239 22.239zm-20.993-15.452h20.993c3.742 0 6.787-3.044 6.787-6.787 0-3.742-3.044-6.786-6.787-6.786h-20.993z"
                  fill="#ffd500"/>
            <path d="m421.792 512c-15.987 0-28.946-12.96-28.946-28.946v-50.864h57.892v50.864c.001 15.986-12.959 28.946-28.946 28.946z"
                  fill="#ffd500"/>
            <path d="m419.833 432.19v50.864c0 10.303-5.387 19.342-13.493 24.472 4.472 2.83 9.769 4.475 15.453 4.475 15.987 0 28.946-12.96 28.946-28.946v-50.865z"
                  fill="#f5c800"/>
        </g>
    </g>
</svg>
