<svg id="Layer_1" enable-background="new 0 0 512 512" height="512" viewBox="0 0 512 512" width="512"
     xmlns="http://www.w3.org/2000/svg">
    <g>
        <g>
            <g>
                <path d="m511.069 315.234-40.134 35.31h-268.347v-349.575h308.481z" fill="#dddddd"/>
                <path d="m512 315.234h-185.706c0 30.88 25.033 55.913 55.913 55.913h129.793z" fill="#f2deac"/>
                <g fill="#777777">
                    <path d="m370.947 61.12c-.026-.071-.054-.142-.083-.212-1.466-3.563-4.9-5.863-8.753-5.863-.004 0-.007 0-.01 0-3.856.004-7.291 2.312-8.751 5.881-.024.058-.047.117-.069.176l-28.803 75.625c-1.519 3.988.483 8.452 4.471 9.97 3.982 1.517 8.451-.482 9.97-4.47l5.278-13.858h35.612l5.221 13.836c1.167 3.094 4.108 5.001 7.229 5.001.906 0 1.829-.16 2.727-.499 3.992-1.507 6.007-5.964 4.5-9.957zm-20.865 51.795 12.003-31.514 11.893 31.514z"/>
                    <path d="m471.386 73.287c-4.268 0-7.726 3.459-7.726 7.726v1.016c-5.22-3.356-11.421-5.312-18.074-5.312-18.488 0-33.528 15.04-33.528 33.528 0 18.487 15.04 33.527 33.528 33.527 6.653 0 12.854-1.956 18.074-5.312v1.016c0 4.267 3.459 7.726 7.726 7.726s7.726-3.459 7.726-7.726v-58.463c.001-4.267-3.458-7.726-7.726-7.726zm-25.8 55.032c-9.967 0-18.075-8.108-18.075-18.074 0-9.967 8.109-18.075 18.075-18.075s18.074 8.108 18.074 18.075c0 9.966-8.109 18.074-18.074 18.074z"/>
                </g>
            </g>
            <g>
                <g>
                    <path d="m168.001 68.889h-1.131c-5.765 0-29.146 0-34.911 0h-1.131c-57.072 0-121.841 51.45-121.841 118.947 0 67.847 73.518 93.758 140.431 93.758 66.911 0 140.426-25.909 140.426-93.758-.002-67.497-64.772-118.947-121.843-118.947z"
                          fill="#A3D399"/>
                    <path d="m294.387 460.691c-8.514-9.302-10.411-22.689-5.414-34.261 5.927-13.722 3.923-30.507-6.79-42.212-15.802-17.265-42.073-15.827-57.845-.06-21.226 19.443-22.668 52.43-3.22 73.678s52.421 22.711 73.647 3.268z"
                          fill="#A3D399"/>
                    <path d="m294.387 460.691c-8.514-9.302-10.412-22.689-5.414-34.261 5.927-13.722 3.923-30.507-6.79-42.212-11.734-12.821-29.239-15.32-43.933-9.305 4.757 2.05 9.201 5.124 13.027 9.305 10.713 11.705 12.716 28.489 6.79 42.212-4.998 11.572-3.101 24.959 5.414 34.261l.378.413c-5.854 5.362-12.604 9.126-19.715 11.331 17.104 5.288 36.47 1.63 50.62-11.331z"
                          fill="#87bf7c"/>
                    <g>
                        <path d="m113.551 511.999 35.905.001v-32.882l-56.324-.042s-17.52 33.147 20.419 32.923z"
                              fill="#FBC9C5"/>
                    </g>
                    <path d="m321.445 259.953c-20.044-32.223-38.724.291-38.724.291-11.015 3.53-48.109 21.35-64.915 32.026 0 0-2.169-3.698-9.288-10.278-16.704-15.44-37.075-25.36-59.063-25.36-56.703 0-102.67 65.946-102.67 122.472 0 68.19 46.346 99.971 46.346 99.971l114.055.042s44.939-39.068 44.939-100.013c0-12.272-2.169-24.987-6.142-37.376 19.403-12.83 46.574-35.729 58.149-47.59.001.001 36.116-3.957 17.313-34.185z"
                          fill="#f5efe6"/>
                    <g>
                        <path d="m321.445 259.953c-14.381-23.119-28.058-12.914-34.64-5.303 1.237 1.531 2.234 3.468 3.735 5.303 10.82 13.226-17.312 34.186-17.312 34.186-8.539 8.75-25.564 23.506-41.697 35.795-9.371 7.139-13.819 18.905-11.891 30.526 1.039 6.261 1.581 12.508 1.581 18.644 0 60.565-44.373 99.518-44.926 100.001l30.893.011s44.939-39.068 44.939-100.013c0-12.272-2.169-24.987-6.142-37.376 19.403-12.83 46.574-35.729 58.149-47.59-.001.002 36.114-3.956 17.311-34.184z"
                              fill="#EEE4D4"/>
                    </g>
                    <g>
                        <path d="m185.361 511.999-35.905.001v-32.882l56.324-.042s17.519 33.147-20.419 32.923z"
                              fill="#FBC9C5"/>
                    </g>
                    <path d="m205.78 479.076-30.893.023c.5.963 16.94 33.121-20.432 32.9h-4.999v.001l35.905-.001c37.938.224 20.419-32.923 20.419-32.923z"
                          fill="#e09894"/>
                    <g>
                        <path d="m199.344 236.663h-102.964s-44.982 38.91-64.558 80.186c-12.144 25.606-20.868 53.56-22.594 73.049 0 0-25.468 25.91 8.216 37.429 35.907 12.279 29.808-24.72 29.808-24.72 4.316-22.824 10.587-40.061 15.279-51.799 13.188-32.996 42.866-72.232 62.023-84.034"
                              fill="#f5efe6"/>
                        <g>
                            <g>
                                <g>
                                    <g>
                                        <path d="m17.444 427.326c-33.684-11.518-8.216-37.429-8.216-37.429l38.024 12.708c0 .001 6.099 37-29.808 24.721z"
                                              fill="#FBC9C5"/>
                                    </g>
                                </g>
                            </g>
                        </g>
                    </g>
                    <g>
                        <g>
                            <g>
                                <path d="m273.032 64.339c3.382-11.947-7.683-22.979-19.668-19.607-12.55 3.531-26.375 8.635-32.937 15.176-3.802 3.79-5.94 8.838-7.049 14.141-5.913-2.071-12.257-3.202-18.849-3.202h-90.229c-6.592 0-12.936 1.131-18.849 3.202-1.109-5.304-3.247-10.351-7.049-14.141-6.562-6.541-20.387-11.645-32.937-15.176-11.985-3.372-23.05 7.66-19.668 19.607 3.542 12.511 8.662 26.293 15.224 32.834 3.21 3.2 7.322 5.208 11.726 6.425-2.695 5.762-4.465 12.06-5.084 18.722l-4.978 77.82c-5.821 62.637 43.627 116.709 106.73 116.709 63.102 0 112.551-54.072 106.73-116.709l-4.978-77.82c-.619-6.662-2.389-12.96-5.084-18.722 4.403-1.217 8.516-3.225 11.726-6.425 6.561-6.541 11.681-20.323 15.223-32.834z"
                                      fill="#f5efe6"/>
                                <g>
                                    <path d="m253.364 44.732c-4.848 1.364-9.883 2.965-14.619 4.79 3.376 3.809 4.968 9.212 3.382 14.816-3.542 12.511-8.662 26.293-15.224 32.835-.096.095-.192.19-.29.283-5.637 5.406-8.127 13.205-6.86 20.911.214 1.302.384 2.62.508 3.952l4.978 77.82c5.336 57.422-35.779 107.637-91.277 115.602 5.041.724 10.198 1.107 15.453 1.107 63.102 0 112.551-54.072 106.73-116.709l-4.978-77.82c-.619-6.662-2.389-12.96-5.084-18.722 4.404-1.217 8.516-3.225 11.726-6.425 6.562-6.541 11.682-20.323 15.224-32.835 3.381-11.946-7.684-22.977-19.669-19.605z"
                                          fill="#EEE4D4"/>
                                </g>
                                <path d="m191.374 49.92c18.044 0 28.646 20.854 17.391 34.915-10.963 13.696-31.468 4.825-49.274 17.162-13.815 9.572-10.749 25.257-10.749 25.257-27.387 0-55.578-17.546-62.586-46.234-3.87-15.844 8.268-31.099 24.626-31.099z"
                                      fill="#A3D399"/>
                                <path d="m191.374 49.921h-30.905c18.044 0 28.646 20.854 17.391 34.914-10.963 13.696-31.468 4.825-49.274 17.162-7.593 5.261-10.082 12.364-10.788 17.699 9.582 4.906 20.321 7.557 30.945 7.557 0 0-3.066-15.685 10.749-25.257 17.806-12.338 38.311-3.467 49.274-17.162 11.254-14.059.652-34.913-17.392-34.913z"
                                      fill="#87bf7c"/>
                            </g>
                            <g>
                                <path d="m149.414 316.849c20.107 0 38.826-5.491 54.813-14.999 30.253-17.993 30.863-61.816 1.252-80.841-16.162-10.384-35.407-16.41-56.064-16.41s-39.903 6.026-56.064 16.41c-29.611 19.026-29.001 62.848 1.252 80.841 15.985 9.508 34.704 14.999 54.811 14.999z"
                                      fill="#f2deac"/>
                            </g>
                            <g>
                                <g>
                                    <path d="m129.881 244.389c9.943 0 9.96-15.453 0-15.453-9.943.001-9.959 15.453 0 15.453z"
                                          fill="#cfb370"/>
                                </g>
                                <g>
                                    <path d="m168.947 244.389c9.943 0 9.96-15.453 0-15.453-9.943.001-9.96 15.453 0 15.453z"
                                          fill="#cfb370"/>
                                </g>
                            </g>
                        </g>
                        <path d="m138.728 8.682c4.537-11.747 16.835-11.405 21.373 0l14.174 41.559s-5.328 14.885-24.861 14.885c-19.533 0-24.861-14.885-24.861-14.885z"
                              fill="#ffd500"/>
                        <g>
                            <g>
                                <path d="m99.109 176.161c9.943 0 9.96-15.453 0-15.453-9.943 0-9.959 15.453 0 15.453z"
                                      fill="#B6AB9B"/>
                            </g>
                            <g>
                                <path d="m199.719 176.161c9.943 0 9.96-15.453 0-15.453-9.943 0-9.96 15.453 0 15.453z"
                                      fill="#B6AB9B"/>
                            </g>
                        </g>
                    </g>
                </g>
                <path d="m435.875 180.254c-2.44-3.502-7.256-4.363-10.756-1.924l-112.606 78.429c-3.502 2.439-4.363 7.255-1.925 10.756 1.502 2.156 3.904 3.311 6.347 3.311 1.524 0 3.063-.45 4.408-1.387l112.606-78.429c3.504-2.439 4.365-7.255 1.926-10.756z"
                      fill="#d5e5ff"/>
                <path d="m321.445 259.953c18.803 30.228-17.312 34.186-17.312 34.186l-21.411-33.895c-.001 0 18.679-32.514 38.723-.291z"
                      fill="#FBC9C5"/>
                <ellipse cx="149.414" cy="296.776" fill="#e09894" rx="17.856" ry="20.073"/>
            </g>
        </g>
        <path d="m157.182 479.075v-19.622c12.034-1.628 23.648-7.047 32.878-16.277 3.017-3.017 3.017-7.909 0-10.927-3.018-3.017-7.909-3.017-10.928 0-8.177 8.178-18.913 12.273-29.655 12.289-.008 0-.015-.001-.022-.001-.016 0-.032.002-.049.003-10.76-.002-21.52-4.099-29.712-12.291-3.018-3.017-7.909-3.017-10.928 0-3.017 3.017-3.017 7.909 0 10.927 9.251 9.251 20.898 14.673 32.962 16.287v19.613h15.454z"
              fill="#B6AB9B"/>
    </g>
</svg>
